<svg width="582" height="568" viewBox="0 0 582 568" xmlns="http://www.w3.org/2000/svg">
  <g fill="#000000">
  <path d="M32 0 L194 0 L194 1 L198 1 L198 2 L201 2 L201 3 L203 3 L203 4 L205 4 L205 5 L207 5 L207 6 L208 6 L208 7 L210 7 L210 8 L211 8 L211 9 L212 9 L212 10 L213 10 L213 11 L214 11 L214 12 L215 12 L215 13 L216 13 L216 14 L217 14 L217 16 L218 16 L218 17 L219 17 L219 19 L220 19 L220 21 L221 21 L221 23 L222 23 L222 26 L223 26 L223 30 L224 30 L224 203 L225 203 L225 212 L226 212 L226 217 L227 217 L227 222 L228 222 L228 226 L229 226 L229 229 L230 229 L230 232 L231 232 L231 235 L232 235 L232 237 L233 237 L233 240 L234 240 L234 242 L235 242 L235 244 L236 244 L236 246 L237 246 L237 248 L238 248 L238 250 L239 250 L239 252 L240 252 L240 253 L241 253 L241 255 L242 255 L242 257 L243 257 L243 258 L244 258 L244 260 L245 260 L245 261 L246 261 L246 263 L247 263 L247 264 L248 264 L248 265 L249 265 L249 267 L250 267 L250 268 L251 268 L251 269 L252 269 L252 270 L253 270 L253 272 L254 272 L254 274 L255 274 L255 277 L256 277 L256 291 L255 291 L255 294 L254 294 L254 296 L253 296 L253 297 L252 297 L252 299 L251 299 L251 300 L250 300 L250 301 L249 301 L249 302 L248 302 L248 304 L247 304 L247 305 L246 305 L246 307 L245 307 L245 308 L244 308 L244 310 L243 310 L243 311 L242 311 L242 313 L241 313 L241 315 L240 315 L240 316 L239 316 L239 318 L238 318 L238 320 L237 320 L237 322 L236 322 L236 324 L235 324 L235 326 L234 326 L234 328 L233 328 L233 331 L232 331 L232 333 L231 333 L231 336 L230 336 L230 339 L229 339 L229 343 L228 343 L228 347 L227 347 L227 351 L226 351 L226 357 L225 357 L225 366 L224 366 L224 538 L223 538 L223 542 L222 542 L222 544 L221 544 L221 547 L220 547 L220 549 L219 549 L219 550 L218 550 L218 552 L217 552 L217 553 L216 553 L216 555 L215 555 L215 556 L214 556 L214 557 L213 557 L213 558 L212 558 L212 559 L211 559 L211 560 L209 560 L209 561 L208 561 L208 562 L206 562 L206 563 L205 563 L205 564 L203 564 L203 565 L200 565 L200 566 L197 566 L197 567 L193 567 L193 568 L32 568 L32 567 L28 567 L28 566 L24 566 L24 565 L22 565 L22 564 L20 564 L20 563 L18 563 L18 562 L17 562 L17 561 L15 561 L15 560 L14 560 L14 559 L13 559 L13 558 L12 558 L12 557 L11 557 L11 556 L10 556 L10 555 L9 555 L9 554 L8 554 L8 553 L7 553 L7 551 L6 551 L6 550 L5 550 L5 548 L4 548 L4 546 L3 546 L3 543 L2 543 L2 540 L1 540 L1 534 L0 534 L0 34 L1 34 L1 29 L2 29 L2 25 L3 25 L3 22 L4 22 L4 20 L5 20 L5 18 L6 18 L6 17 L7 17 L7 15 L8 15 L8 14 L9 14 L9 13 L10 13 L10 12 L11 12 L11 11 L12 11 L12 10 L13 10 L13 9 L14 9 L14 8 L15 8 L15 7 L17 7 L17 6 L18 6 L18 5 L20 5 L20 4 L22 4 L22 3 L24 3 L24 2 L27 2 L27 1 L32 1 Z"/>
  <path d="M320 84 L332 84 L332 85 L338 85 L338 86 L341 86 L341 87 L344 87 L344 88 L347 88 L347 89 L349 89 L349 90 L350 90 L350 91 L352 91 L352 92 L354 92 L354 93 L355 93 L355 94 L356 94 L356 95 L358 95 L358 96 L359 96 L359 97 L361 97 L361 98 L362 98 L362 99 L364 99 L364 100 L365 100 L365 101 L367 101 L367 102 L368 102 L368 103 L369 103 L369 104 L371 104 L371 105 L372 105 L372 106 L374 106 L374 107 L375 107 L375 108 L377 108 L377 109 L378 109 L378 110 L379 110 L379 111 L381 111 L381 112 L382 112 L382 113 L384 113 L384 114 L385 114 L385 115 L387 115 L387 116 L388 116 L388 117 L390 117 L390 118 L391 118 L391 119 L393 119 L393 120 L394 120 L394 121 L395 121 L395 122 L397 122 L397 123 L398 123 L398 124 L400 124 L400 125 L401 125 L401 126 L403 126 L403 127 L404 127 L404 128 L405 128 L405 129 L407 129 L407 130 L408 130 L408 131 L410 131 L410 132 L411 132 L411 133 L413 133 L413 134 L414 134 L414 135 L416 135 L416 136 L417 136 L417 137 L418 137 L418 138 L420 138 L420 139 L421 139 L421 140 L423 140 L423 141 L424 141 L424 142 L426 142 L426 143 L427 143 L427 144 L429 144 L429 145 L430 145 L430 146 L431 146 L431 147 L433 147 L433 148 L434 148 L434 149 L436 149 L436 150 L437 150 L437 151 L439 151 L439 152 L440 152 L440 153 L442 153 L442 154 L443 154 L443 155 L444 155 L444 156 L446 156 L446 157 L447 157 L447 158 L449 158 L449 159 L450 159 L450 160 L452 160 L452 161 L453 161 L453 162 L455 162 L455 163 L456 163 L456 164 L458 164 L458 165 L459 165 L459 166 L460 166 L460 167 L462 167 L462 168 L463 168 L463 169 L465 169 L465 170 L466 170 L466 171 L468 171 L468 172 L469 172 L469 173 L471 173 L471 174 L472 174 L472 175 L473 175 L473 176 L475 176 L475 177 L476 177 L476 178 L478 178 L478 179 L479 179 L479 180 L481 180 L481 181 L482 181 L482 182 L484 182 L484 183 L485 183 L485 184 L486 184 L486 185 L488 185 L488 186 L489 186 L489 187 L491 187 L491 188 L492 188 L492 189 L494 189 L494 190 L495 190 L495 191 L497 191 L497 192 L498 192 L498 193 L500 193 L500 194 L501 194 L501 195 L502 195 L502 196 L504 196 L504 197 L505 197 L505 198 L507 198 L507 199 L508 199 L508 200 L510 200 L510 201 L511 201 L511 202 L513 202 L513 203 L514 203 L514 204 L516 204 L516 205 L517 205 L517 206 L519 206 L519 207 L520 207 L520 208 L521 208 L521 209 L523 209 L523 210 L524 210 L524 211 L526 211 L526 212 L527 212 L527 213 L529 213 L529 214 L530 214 L530 215 L531 215 L531 216 L533 216 L533 217 L534 217 L534 218 L536 218 L536 219 L537 219 L537 220 L539 220 L539 221 L540 221 L540 222 L542 222 L542 223 L543 223 L543 224 L545 224 L545 225 L546 225 L546 226 L548 226 L548 227 L549 227 L549 228 L551 228 L551 229 L552 229 L552 230 L554 230 L554 231 L555 231 L555 232 L557 232 L557 233 L558 233 L558 234 L559 234 L559 235 L560 235 L560 236 L562 236 L562 237 L563 237 L563 238 L564 238 L564 240 L565 240 L565 241 L566 241 L566 242 L567 242 L567 243 L568 243 L568 244 L569 244 L569 245 L570 245 L570 246 L571 246 L571 248 L572 248 L572 250 L573 250 L573 252 L574 252 L574 253 L575 253 L575 255 L576 255 L576 258 L577 258 L577 260 L578 260 L578 262 L579 262 L579 265 L580 265 L580 269 L581 269 L581 275 L582 275 L582 291 L581 291 L581 298 L580 298 L580 301 L579 301 L579 305 L578 305 L578 308 L577 308 L577 310 L576 310 L576 312 L575 312 L575 314 L574 314 L574 316 L573 316 L573 317 L572 317 L572 319 L571 319 L571 320 L570 320 L570 322 L569 322 L569 323 L568 323 L568 324 L567 324 L567 325 L566 325 L566 327 L565 327 L565 328 L564 328 L564 329 L563 329 L563 330 L562 330 L562 331 L561 331 L561 332 L560 332 L560 333 L558 333 L558 334 L557 334 L557 335 L555 335 L555 336 L554 336 L554 337 L553 337 L553 338 L551 338 L551 339 L550 339 L550 340 L548 340 L548 341 L547 341 L547 342 L545 342 L545 343 L544 343 L544 344 L543 344 L543 345 L541 345 L541 346 L540 346 L540 347 L538 347 L538 348 L537 348 L537 349 L535 349 L535 350 L534 350 L534 351 L533 351 L533 352 L531 352 L531 353 L530 353 L530 354 L528 354 L528 355 L527 355 L527 356 L525 356 L525 357 L524 357 L524 358 L523 358 L523 359 L521 359 L521 360 L520 360 L520 361 L518 361 L518 362 L517 362 L517 363 L515 363 L515 364 L514 364 L514 365 L513 365 L513 366 L511 366 L511 367 L510 367 L510 368 L508 368 L508 369 L507 369 L507 370 L506 370 L506 371 L504 371 L504 372 L503 372 L503 373 L501 373 L501 374 L500 374 L500 375 L498 375 L498 376 L497 376 L497 377 L495 377 L495 378 L494 378 L494 379 L493 379 L493 380 L491 380 L491 381 L490 381 L490 382 L488 382 L488 383 L487 383 L487 384 L485 384 L485 385 L484 385 L484 386 L483 386 L483 387 L481 387 L481 388 L480 388 L480 389 L478 389 L478 390 L477 390 L477 391 L475 391 L475 392 L474 392 L474 393 L473 393 L473 394 L471 394 L471 395 L470 395 L470 396 L468 396 L468 397 L467 397 L467 398 L465 398 L465 399 L464 399 L464 400 L463 400 L463 401 L461 401 L461 402 L460 402 L460 403 L459 403 L459 404 L457 404 L457 405 L456 405 L456 406 L454 406 L454 407 L453 407 L453 408 L451 408 L451 409 L450 409 L450 410 L449 410 L449 411 L447 411 L447 412 L446 412 L446 413 L444 413 L444 414 L443 414 L443 415 L441 415 L441 416 L440 416 L440 417 L439 417 L439 418 L437 418 L437 419 L436 419 L436 420 L434 420 L434 421 L433 421 L433 422 L431 422 L431 423 L430 423 L430 424 L429 424 L429 425 L427 425 L427 426 L426 426 L426 427 L424 427 L424 428 L423 428 L423 429 L422 429 L422 430 L420 430 L420 431 L419 431 L419 432 L417 432 L417 433 L416 433 L416 434 L415 434 L415 435 L413 435 L413 436 L412 436 L412 437 L410 437 L410 438 L409 438 L409 439 L407 439 L407 440 L406 440 L406 441 L404 441 L404 442 L403 442 L403 443 L402 443 L402 444 L400 444 L400 445 L399 445 L399 446 L397 446 L397 447 L396 447 L396 448 L394 448 L394 449 L393 449 L393 450 L392 450 L392 451 L390 451 L390 452 L389 452 L389 453 L387 453 L387 454 L386 454 L386 455 L384 455 L384 456 L383 456 L383 457 L382 457 L382 458 L380 458 L380 459 L379 459 L379 460 L377 460 L377 461 L376 461 L376 462 L374 462 L374 463 L373 463 L373 464 L372 464 L372 465 L370 465 L370 466 L369 466 L369 467 L367 467 L367 468 L366 468 L366 469 L364 469 L364 470 L363 470 L363 471 L362 471 L362 472 L360 472 L360 473 L359 473 L359 474 L357 474 L357 475 L356 475 L356 476 L354 476 L354 477 L353 477 L353 478 L351 478 L351 479 L349 479 L349 480 L347 480 L347 481 L344 481 L344 482 L341 482 L341 483 L337 483 L337 484 L329 484 L329 485 L322 485 L322 484 L315 484 L315 483 L312 483 L312 482 L309 482 L309 481 L307 481 L307 480 L305 480 L305 479 L303 479 L303 478 L301 478 L301 477 L300 477 L300 476 L298 476 L298 475 L297 475 L297 474 L296 474 L296 473 L294 473 L294 472 L293 472 L293 471 L292 471 L292 470 L291 470 L291 468 L290 468 L290 467 L289 467 L289 466 L288 466 L288 464 L287 464 L287 463 L286 463 L286 461 L285 461 L285 459 L284 459 L284 457 L283 457 L283 454 L282 454 L282 451 L281 451 L281 445 L280 445 L280 362 L281 362 L281 355 L282 355 L282 350 L283 350 L283 347 L284 347 L284 344 L285 344 L285 341 L286 341 L286 339 L287 339 L287 336 L288 336 L288 334 L289 334 L289 331 L290 331 L290 329 L291 329 L291 328 L292 328 L292 326 L293 326 L293 324 L294 324 L294 322 L295 322 L295 321 L296 321 L296 319 L297 319 L297 317 L298 317 L298 316 L299 316 L299 315 L300 315 L300 313 L301 313 L301 312 L302 312 L302 311 L303 311 L303 310 L304 310 L304 309 L305 309 L305 307 L306 307 L306 306 L307 306 L307 305 L308 305 L308 303 L309 303 L309 301 L310 301 L310 299 L311 299 L311 297 L312 297 L312 293 L313 293 L313 277 L312 277 L312 273 L311 273 L311 270 L310 270 L310 268 L309 268 L309 266 L308 266 L308 264 L307 264 L307 263 L306 263 L306 262 L305 262 L305 260 L304 260 L304 259 L303 259 L303 258 L302 258 L302 257 L301 257 L301 255 L300 255 L300 254 L299 254 L299 253 L298 253 L298 252 L297 252 L297 250 L296 250 L296 248 L295 248 L295 247 L294 247 L294 245 L293 245 L293 243 L292 243 L292 242 L291 242 L291 240 L290 240 L290 238 L289 238 L289 236 L288 236 L288 234 L287 234 L287 231 L286 231 L286 229 L285 229 L285 226 L284 226 L284 223 L283 223 L283 219 L282 219 L282 214 L281 214 L281 208 L280 208 L280 125 L281 125 L281 120 L282 120 L282 116 L283 116 L283 113 L284 113 L284 111 L285 111 L285 109 L286 109 L286 107 L287 107 L287 105 L288 105 L288 104 L289 104 L289 102 L290 102 L290 101 L291 101 L291 100 L292 100 L292 99 L293 99 L293 98 L294 98 L294 97 L295 97 L295 96 L296 96 L296 95 L297 95 L297 94 L298 94 L298 93 L300 93 L300 92 L301 92 L301 91 L303 91 L303 90 L305 90 L305 89 L307 89 L307 88 L309 88 L309 87 L312 87 L312 86 L315 86 L315 85 L320 85 Z"/>
  </g>
</svg>
